<?xml version="1.0" encoding="UTF-8"?>
<svg id="Layer_1" xmlns="http://www.w3.org/2000/svg" version="1.1" viewBox="0 0 72 72">
  <!-- Generator: Adobe Illustrator 29.6.0, SVG Export Plug-In . SVG Version: 2.1.1 Build 207)  -->
  <path d="M69.18,20.99H19.59c-1.58,0-2.86,1.28-2.86,2.86s1.28,2.86,2.86,2.86h46.72v38.86H5.72V19.13L63.12,7.06v6.07c0,1.58,1.28,2.86,2.86,2.86s2.86-1.28,2.86-2.86V3.53s0,0,0,0c0-.07,0-.14-.01-.21,0-.03,0-.06,0-.09,0-.01,0-.03,0-.04-.02-.18-.06-.36-.11-.53,0-.02-.01-.03-.02-.05-.02-.07-.05-.14-.08-.22-.02-.04-.03-.07-.05-.11-.02-.05-.04-.09-.07-.14-.03-.05-.06-.09-.08-.14-.02-.03-.04-.06-.06-.1-.03-.05-.07-.09-.11-.14-.02-.03-.04-.05-.06-.08-.04-.04-.08-.09-.12-.13-.02-.03-.05-.05-.07-.08-.04-.04-.08-.07-.12-.1-.03-.03-.06-.06-.09-.08-.03-.03-.07-.05-.11-.08-.04-.03-.08-.06-.12-.08-.03-.02-.06-.04-.1-.06-.05-.03-.09-.06-.14-.08-.03-.02-.06-.03-.09-.04-.05-.03-.1-.05-.16-.07-.03-.01-.07-.02-.1-.04-.05-.02-.1-.04-.16-.06-.04-.01-.09-.02-.14-.03-.04-.01-.09-.02-.13-.03-.06-.01-.13-.02-.19-.03-.03,0-.05,0-.08-.01-.09,0-.17-.01-.26-.01,0,0-.02,0-.03,0,0,0,0,0,0,0-.07,0-.14,0-.21.01-.03,0-.06,0-.09,0-.02,0-.04,0-.05,0-.08,0-.16.02-.24.04,0,0,0,0,0,0L2.27,14.02c-1.32.28-2.27,1.45-2.27,2.8v51.61c0,1.58,1.28,2.86,2.86,2.86h66.32c1.58,0,2.86-1.28,2.86-2.86V23.85c0-1.58-1.28-2.86-2.86-2.86Z"/>
  <path d="M35.69,35.26c-1.58,0-2.86,1.28-2.86,2.86v6.64h-6.64c-1.58,0-2.86,1.28-2.86,2.86s1.28,2.86,2.86,2.86h6.64v6.64c0,1.58,1.28,2.86,2.86,2.86s2.86-1.28,2.86-2.86v-6.64h6.64c1.58,0,2.86-1.28,2.86-2.86s-1.28-2.86-2.86-2.86h-6.64v-6.64c0-1.58-1.28-2.86-2.86-2.86Z"/>
</svg>