<?xml version="1.0" encoding="UTF-8"?>
<svg id="Layer_1" xmlns="http://www.w3.org/2000/svg" version="1.1" viewBox="0 0 72 72">
  <!-- Generator: Adobe Illustrator 29.6.0, SVG Export Plug-In . SVG Version: 2.1.1 Build 207)  -->
  <path d="M53.74,50.69c-.05.06.29.26.36.3,2.34,1.3,5.01,2.3,7.32,3.63.84.48,1.52,1.01,1.61,2.07.12,1.3-.42,2.02-1.49,2.63-1.32.76-2.78,1.31-4.15,1.98-6.96,3.44-13.82,7.09-20.79,10.49-.49.21-1.07.27-1.59.12-8.56-4.58-17.47-8.51-26.05-13.03-1.38-1.47-1.03-3.23.7-4.21,2.36-1.33,5.06-2.37,7.44-3.69.13-.07.25-.15.36-.25l-8.11-4.07c-1.57-1.04-1.63-2.97-.21-4.16l7.31-3.64c1.17,4.17,5.6,6.74,9.8,6.59,6.87,6.49,15.85,5.72,20.95-2.39.19-.31.66-1.34.8-1.48.12-.12.76-.34,1-.49.91-.56,1.76-1.3,2.41-2.15.18-.23.76-1.31.96-1.29l9.46,4.74c1.53.87,1.63,3.1.23,4.14l-8.32,4.17ZM54.88,56.91l-6.86-3.32-11.79,5.83h-1.27l-11.85-5.84c-2.14,1.13-4.52,2.08-6.62,3.28-.1.05-.21,0-.17.17l19.32,9.6,19.13-9.53.11-.19Z"/>
  <path d="M31.98,8.21c1.98-.41,3.89,2.22,4.77,3.69.54.9.97,1.86,1.38,2.82,4.69.33,8.52,5.03,10.33,9.03.62,1.38.75,2.49,1.19,3.8.18.52.94.97,1.16,1.99.67,3.05-2.05,8.37-4.68,9.99-.19.11-.99.45-1.04.54-.03.05.07.36.03.55s-.43.89-.55,1.12c-2.87,5.28-9.34,6.94-14.31,3.44-.95-.67-1.96-1.92-3.06-2.11-1.28-.22-2.14-.05-3.45-.58-7.31-2.97-4.67-13.46-2.13-18.93-.44-.48-.6-1.14-.76-1.76-.58-2.3-.94-7.19,1.57-8.5,2.71-1.41,5.56,2.38,6.75,4.39.07.03,1.31-.65,1.23-.88-.39-2.16-.76-4.6-.07-6.73.23-.72.82-1.73,1.62-1.89ZM33.88,16.31c.49.5,2.04.34,2.23-.3.23-.77-1.22-3.26-1.74-3.92-.12-.16-.79-.93-.92-.92-.1.06-.13.16-.17.26-.36.83-.07,4.2.6,4.88ZM24.45,16.44c-.5.15-.44,1.79-.41,2.22.05.77.46,3.55,1.36,3.72.97.19,2.4-.98,2.63-1.93.14-.59-.87-2.03-1.27-2.5s-1.64-1.72-2.31-1.52ZM41.8,20.13c-.84.14-1.06.95-.39,1.49,1.34,1.09,3.49-.08,2.08-1.11-.48-.35-1.1-.48-1.68-.38ZM31.81,23.98c-1.59.33-2.47,3.55-.39,3.11,1.52-.32,2.34-3.52.39-3.11ZM40.86,26.77c.66.39,1.94.56,2.57.08.86-.66-1.24-1.51-1.34-1.08.22.57-.05.87-.6.98l-.63.02ZM33.94,28.52c1.45,1.33,4.54-.6,1.14-.97.15.84-.44.99-1.14.97ZM43.14,28.17c-2.54.59-5.06,1.76-7.3,3.08-.42.25-.99.89-1.47.73-2.23-1.3-6.45-3.25-8.45-.65s1.42,6.27,3.75,7.37c3.37,1.6,11.71,1.83,15.13.46,2.08-.83,3.34-2.78,4.16-4.78s2.03-5.8-1.09-6.48c.6.81.48,1.67.15,2.56-.84,2.27-2.11,2.55-4.27,1.68-2.45-.98-2.75-2.29-.61-3.98Z"/>
  <path d="M47.11,2.52c.7-.89,1.48-1.13,2.5-.59,1.46.77.62,2.82.11,3.95-.46,1.02-2.12,4.15-3.17,4.46-.67.2-1.16-.33-1.23-.97-.18-1.52.82-5.62,1.79-6.85Z"/>
  <path d="M39.17.06c.88-.18,1.74.03,2.16.87.68,1.33.4,5.7-.12,7.14s-1.49,1.38-2.12.1-1.34-4.59-1.2-5.96c.07-.72.45-1.97,1.28-2.14"/>
  <path d="M57.21,11.57c-.88,1.04-5.51,3.31-6.83,3.07-.91-.17-.91-.92-.53-1.62.8-1.49,4.58-4.55,6.33-4.43,1.48.1,1.94,1.91,1.03,2.98Z"/>
  <path d="M44.31,13.76c-.11-.07-.35-.4-.4-.52-.7-1.68,1.6-2.84,2.42-1.46s-.61,2.88-2.02,1.97Z"/>
  <path d="M40.22,10.14c1.81-.3,2.23,2.49.57,2.76-2,.32-2.18-2.5-.57-2.76Z"/>
  <path d="M48.63,14.53c.2.14.46.64.48.88.12,1.72-2.28,2.29-2.74.53-.33-1.26,1.18-2.13,2.26-1.42Z"/>
</svg>