<?xml version="1.0" encoding="UTF-8"?>
<svg id="Layer_1" xmlns="http://www.w3.org/2000/svg" version="1.1" viewBox="0 0 72 72">
  <!-- Generator: Adobe Illustrator 29.6.0, SVG Export Plug-In . SVG Version: 2.1.1 Build 207)  -->
  <path d="M48.98,53.26H2.02c-1.12,0-2.02-.91-2.02-2.02s.91-2.02,2.02-2.02h45.71l10.91-21.81c.17-.35.44-.64.78-.84l9.53-5.65c.96-.57,2.2-.25,2.77.71.57.96.25,2.2-.71,2.77l-9.01,5.35-11.2,22.4c-.34.69-1.04,1.12-1.81,1.12Z"/>
  <g>
    <path d="M44.06,43.7H6.63c-1.12,0-2.02-.91-2.02-2.02V11.02c0-1.12.91-2.02,2.02-2.02h37.43c1.12,0,2.02.91,2.02,2.02v30.66c0,1.12-.91,2.02-2.02,2.02ZM8.65,39.66h33.39V13.05H8.65v26.61Z"/>
    <path d="M44.06,21.48H6.63c-1.12,0-2.02-.91-2.02-2.02v-8.43c0-1.12.91-2.02,2.02-2.02h37.43c1.12,0,2.02.91,2.02,2.02v8.43c0,1.12-.91,2.02-2.02,2.02ZM8.65,17.43h33.39v-4.38H8.65v4.38Z"/>
  </g>
  <g>
    <path d="M8.69,69.17c-3.32,0-6.03-2.7-6.03-6.03s2.7-6.03,6.03-6.03,6.03,2.7,6.03,6.03-2.7,6.03-6.03,6.03ZM8.69,61.16c-1.09,0-1.98.89-1.98,1.98s.89,1.98,1.98,1.98,1.98-.89,1.98-1.98-.89-1.98-1.98-1.98Z"/>
    <path d="M43.01,69.17c-3.32,0-6.03-2.7-6.03-6.03s2.7-6.03,6.03-6.03,6.03,2.7,6.03,6.03-2.7,6.03-6.03,6.03ZM43.01,61.16c-1.09,0-1.98.89-1.98,1.98s.89,1.98,1.98,1.98,1.98-.89,1.98-1.98-.89-1.98-1.98-1.98Z"/>
  </g>
</svg>