<?xml version="1.0" encoding="UTF-8"?>
<svg id="Layer_1" xmlns="http://www.w3.org/2000/svg" version="1.1" viewBox="0 0 144 144">
  <!-- Generator: Adobe Illustrator 29.6.0, SVG Export Plug-In . SVG Version: 2.1.1 Build 207)  -->
  <defs>
    <style>
      .st0 {
        fill: #fff;
      }

      .st1 {
        fill: #231f20;
      }
    </style>
  </defs>
  <g>
    <path class="st0" d="M68.9,72.24H10.59c-1.99,0-3.59,1.61-3.59,3.6v58.3c0,1.99,1.61,3.6,3.59,3.6h58.31c1.99,0,3.59-1.61,3.59-3.6v-58.3c0-1.99-1.61-3.6-3.59-3.6ZM44.18,76.79v10.43h-8.86v-10.43h8.86ZM67.94,133.19H11.54v-56.41h14.67v19.53h27.06v-19.53h14.67v56.41Z"/>
    <path class="st1" d="M76.2,72.24c-.79-1.61-2.1-2.92-3.71-3.71-1.08-.54-2.3-.84-3.59-.84H10.59c-4.49,0-8.14,3.65-8.14,8.15v58.3c0,4.5,3.65,8.15,8.14,8.15h58.31c1.29,0,2.51-.3,3.59-.84,1.61-.79,2.92-2.1,3.71-3.71.54-1.09.84-2.31.84-3.6v-58.3c0-1.29-.3-2.51-.84-3.6ZM67.94,133.19H11.54v-56.41h56.4v56.41Z"/>
  </g>
  <polygon class="st1" points="53.27 72.24 53.27 96.32 26.21 96.32 26.21 72.24 35.31 72.24 35.31 87.22 44.18 87.22 44.18 72.24 53.27 72.24"/>
  <g>
    <path class="st0" d="M134.4,72.24h-58.3c-1.99,0-3.6,1.61-3.6,3.6v58.3c0,1.99,1.61,3.6,3.6,3.6h58.3c1.99,0,3.6-1.61,3.6-3.6v-58.3c0-1.99-1.61-3.6-3.6-3.6ZM109.68,76.79v10.43h-8.87v-10.43h8.87ZM133.45,133.19h-56.41v-56.41h14.67v19.53h27.07v-19.53h14.67v56.41Z"/>
    <path class="st1" d="M134.4,67.69h-58.3c-1.29,0-2.51.3-3.6.84-1.61.79-2.92,2.1-3.71,3.71-.54,1.09-.84,2.31-.84,3.6v58.3c0,1.29.3,2.51.84,3.6.79,1.61,2.1,2.92,3.71,3.71,1.09.54,2.31.84,3.6.84h58.3c4.5,0,8.15-3.65,8.15-8.15v-58.3c0-4.5-3.65-8.15-8.15-8.15ZM133.45,133.19h-56.41v-56.41h56.41v56.41Z"/>
  </g>
  <polygon class="st1" points="118.78 72.24 118.78 96.32 91.71 96.32 91.71 72.24 100.81 72.24 100.81 87.22 109.68 87.22 109.68 72.24 118.78 72.24"/>
  <g>
    <path class="st0" d="M101.64,6.74h-58.3c-1.99,0-3.59,1.61-3.59,3.59v58.31c0,1.99,1.61,3.59,3.59,3.59h58.3c1.99,0,3.6-1.61,3.6-3.59V10.33c0-1.99-1.61-3.59-3.6-3.59ZM76.93,11.29v10.42h-8.86v-10.42h8.86ZM44.29,67.69V11.29h14.68v19.52h27.06V11.29h14.67v56.4h-56.41Z"/>
    <path class="st1" d="M101.64,2.19h-58.3c-4.49,0-8.15,3.65-8.15,8.14v58.31c0,1.29.3,2.51.84,3.59,1.33,2.69,4.11,4.55,7.31,4.55h58.3c3.21,0,5.98-1.86,7.31-4.55.54-1.08.84-2.3.84-3.59V10.33c0-4.49-3.65-8.14-8.15-8.14ZM44.29,67.69V11.29h56.41v56.4h-56.41Z"/>
  </g>
  <polygon class="st1" points="86.03 6.74 86.03 30.81 58.97 30.81 58.97 6.74 68.07 6.74 68.07 21.71 76.93 21.71 76.93 6.74 86.03 6.74"/>
</svg>