<?xml version="1.0" encoding="UTF-8"?>
<svg id="Layer_1" xmlns="http://www.w3.org/2000/svg" version="1.1" viewBox="0 0 72 72">
  <!-- Generator: Adobe Illustrator 29.6.0, SVG Export Plug-In . SVG Version: 2.1.1 Build 207)  -->
  <defs>
    <style>
      .st0 {
        font-family: Archivo-Medium, Archivo;
        font-size: 11.42px;
        font-weight: 500;
      }

      .st0, .st1 {
        fill: #fff;
      }

      .st2 {
        fill: #221f1f;
      }
    </style>
  </defs>
  <rect class="st2" width="72" height="72" rx="21.82" ry="21.82"/>
  <text class="st0" transform="translate(24.35 60.26)"><tspan x="0" y="0">Bulk</tspan></text>
  <g>
    <g>
      <path class="st1" d="M35.25,28.1h-12.17c-.41,0-.75.34-.75.75v12.17c0,.41.34.75.75.75h12.17c.41,0,.75-.34.75-.75v-12.17c0-.41-.34-.75-.75-.75ZM30.09,29.05v2.18h-1.85v-2.18h1.85ZM35.05,40.82h-11.77v-11.77h3.06v2.8c0,.7.57,1.27,1.27,1.27h3.1c.7,0,1.27-.57,1.27-1.27v-2.8h3.06v11.77Z"/>
      <path class="st1" d="M36.77,28.1c-.16-.34-.44-.61-.77-.77-.23-.11-.48-.18-.75-.18h-12.17c-.94,0-1.7.76-1.7,1.7v12.17c0,.94.76,1.7,1.7,1.7h12.17c.27,0,.52-.06.75-.18.34-.16.61-.44.77-.77.11-.23.18-.48.18-.75v-12.17c0-.27-.06-.52-.18-.75h0ZM35.05,40.82h-11.77v-11.77h11.77v11.77Z"/>
    </g>
    <g>
      <path class="st1" d="M49.67,28.1h-13.67v13.67h13.67v-13.67ZM43.76,29.05v2.18h-1.85v-2.18h1.85ZM48.72,40.82h-11.77v-11.77h3.06v2.8c0,.7.57,1.27,1.27,1.27h3.11c.7,0,1.27-.57,1.27-1.27v-2.8h3.06v11.77Z"/>
      <path class="st1" d="M48.92,27.15h-12.17c-.27,0-.52.06-.75.18-.34.16-.61.44-.77.77-.11.23-.18.48-.18.75v12.17c0,.27.06.52.18.75.16.34.44.61.77.77.23.11.48.18.75.18h12.17c.94,0,1.7-.76,1.7-1.7v-12.17c0-.94-.76-1.7-1.7-1.7ZM48.72,40.82h-11.77v-11.77h11.77v11.77Z"/>
    </g>
    <g>
      <path class="st1" d="M42.08,14.43h-12.17c-.41,0-.75.34-.75.75v12.17c0,.41.34.75.75.75h12.17c.41,0,.75-.34.75-.75v-12.16c0-.41-.34-.75-.75-.75ZM36.92,15.38v2.17h-1.85v-2.17h1.85ZM30.11,27.15v-11.77h3.06v2.8c0,.7.57,1.27,1.27,1.27h3.1c.7,0,1.27-.57,1.27-1.27v-2.8h3.06v11.77h-11.77Z"/>
      <path class="st1" d="M42.08,13.48h-12.17c-.94,0-1.7.76-1.7,1.7v12.17c0,.27.06.52.18.75.28.56.86.95,1.53.95h12.17c.67,0,1.25-.39,1.53-.95.11-.23.18-.48.18-.75v-12.17c0-.94-.76-1.7-1.7-1.7ZM30.11,27.15v-11.77h11.77v11.77h-11.77Z"/>
    </g>
  </g>
</svg>