<svg viewBox="0 0 222 222" xmlns="http://www.w3.org/2000/svg"><path d="m0 0h222v222h-222z" fill="#052e16"/><path d="m147 57h36v18h-36z" fill="#498448"/><path d="m165 57h18v18h-18z" fill="#3d783d"/><g fill="#f98635"><path d="m39 165h18v18h-18zm18-36h36v36h-36z"/><path d="m75 111h36v36h-36z"/><path d="m93 93h36v36h-36z"/></g><path d="m75 147h18v18h-18zm18-18h18v18h-18zm18-18h18v18h-18z" fill="#ea7928"/><path d="m93 57h36v18h-36z" fill="#498448"/><path d="m111 57h18v18h-18z" fill="#3d783d"/><path d="m111 39h18v18h-18zm36 0h18v36h-18zm-18 36h18v18h-18zm18 18h18v18h-18zm18 0h18v36h-18z" fill="#498448"/><path d="m165 111h18v18h-18z" fill="#3d783d"/></svg>