<?xml version="1.0" encoding="UTF-8"?>
<svg id="Layer_1" xmlns="http://www.w3.org/2000/svg" version="1.1" viewBox="0 0 72 72">
  <!-- Generator: Adobe Illustrator 29.6.0, SVG Export Plug-In . SVG Version: 2.1.1 Build 207)  -->
  <path d="M72.17,17.44v-8.63l-8.6-.21-.21-8.6h-8.44l-.19,17.26h-8.26V.63s-.37-.63-.37-.63h-8.26l-.18,8.63-8.63.19v8.54l.28.28h16.81v8.25h-17.29v8.64h-7.78l-.28.28v8.35h-8.17c-.06,0-.28.25-.46.19v16.24H-.17v12.7h12.7v-12.23h16.22l.28-.27v-8.17c.18.06.4-.18.46-.18h8.17v-7.97h8.79v-.3h.02v-17.07h7.98l.28.28v8.17h8.35l.28.28v8.35h8.81v-17.26l-17.26-.46v-7.82h1.48s15.78-.17,15.78-.17Z"/>
</svg>