<?xml version="1.0" encoding="UTF-8"?>
<svg id="Layer_1" xmlns="http://www.w3.org/2000/svg" version="1.1" viewBox="0 0 72 72">
  <!-- Generator: Adobe Illustrator 29.6.0, SVG Export Plug-In . SVG Version: 2.1.1 Build 207)  -->
  <path d="M69.14,26.37c-1.47-.29-2.9.66-3.2,2.13l-7.59,38.06H13.65L6.05,28.5c-.29-1.47-1.72-2.43-3.2-2.13-1.47.29-2.43,1.72-2.13,3.2l8.03,40.25c.25,1.27,1.37,2.19,2.67,2.19h49.17c1.3,0,2.41-.92,2.67-2.19l8.03-40.25c.29-1.47-.66-2.9-2.13-3.2Z"/>
  <path d="M23.39,25.57c-1.49.17-2.56,1.51-2.39,3.01l3.41,30.13c.16,1.39,1.33,2.41,2.7,2.41.1,0,.21,0,.31-.02,1.49-.17,2.56-1.51,2.39-3.01l-3.41-30.13c-.17-1.49-1.51-2.56-3.01-2.39Z"/>
  <path d="M45.61,27.96l-3.41,30.13c-.17,1.49.9,2.84,2.39,3.01.1.01.21.02.31.02,1.36,0,2.54-1.02,2.7-2.41l3.41-30.13c.17-1.49-.9-2.84-2.4-3.01-1.49-.17-2.84.9-3.01,2.39Z"/>
  <path d="M3.39,18.07h65.23c1.5,0,2.72-1.22,2.72-2.72s-1.22-2.72-2.72-2.72h-17.1c-1.29-7.18-7.57-12.64-15.11-12.64s-13.83,5.46-15.11,12.64H3.39c-1.5,0-2.72,1.22-2.72,2.72s1.22,2.72,2.72,2.72ZM36.4,5.44c4.53,0,8.35,3.05,9.53,7.2h-19.07c1.19-4.15,5.01-7.2,9.54-7.2Z"/>
</svg>