<?xml version="1.0" encoding="UTF-8"?>
<svg id="Layer_1" xmlns="http://www.w3.org/2000/svg" version="1.1" viewBox="0 0 72 72">
  <!-- Generator: Adobe Illustrator 29.6.0, SVG Export Plug-In . SVG Version: 2.1.1 Build 207)  -->
  <path d="M61.38,72H10.62c-1.21,0-2.19-.98-2.19-2.19V30.3c0-.98.65-1.84,1.6-2.11l12.96-3.62c1.16-.33,2.37.35,2.7,1.52.33,1.16-.35,2.37-1.52,2.7l-11.36,3.17v35.66h46.39v-29.75H23.43c-1.21,0-2.19-.98-2.19-2.19s.98-2.19,2.19-2.19h37.95c1.21,0,2.19.98,2.19,2.19v34.12c0,1.21-.98,2.19-2.19,2.19Z"/>
  <path d="M58.94,29.67c-1.21,0-2.19-.98-2.19-2.19v-7.88l-2.32.65c-1.16.33-2.37-.35-2.7-1.51-.33-1.16.35-2.37,1.51-2.7l5.1-1.44c.66-.19,1.37-.05,1.91.36.55.41.87,1.06.87,1.74v10.77c0,1.21-.98,2.19-2.19,2.19Z"/>
  <path d="M28.43,11.49h2.95v18.11c0,.74.6,1.34,1.34,1.34h13.96c.74,0,1.34-.6,1.34-1.34V11.49h2.95c.81,0,1.2-1,.59-1.55L41.1.54c-.8-.72-2-.72-2.8,0l-10.47,9.41c-.61.54-.22,1.55.59,1.55Z"/>
  <path d="M49.75,61.33c-3.72,0-6.74-3.02-6.74-6.74s3.02-6.74,6.74-6.74,6.74,3.02,6.74,6.74-3.02,6.74-6.74,6.74ZM49.75,52.23c-1.3,0-2.36,1.06-2.36,2.36s1.06,2.36,2.36,2.36,2.36-1.06,2.36-2.36-1.06-2.36-2.36-2.36Z"/>
</svg>