<?xml version="1.0" encoding="UTF-8"?>
<svg id="Layer_1" xmlns="http://www.w3.org/2000/svg" version="1.1" viewBox="0 0 72 72">
  <!-- Generator: Adobe Illustrator 29.6.0, SVG Export Plug-In . SVG Version: 2.1.1 Build 207)  -->
  <path d="M34.91,1.52c3.88-.22,8.85.69,12.51,1.97,8.92,3.14,16.12,9.75,20.08,18.32,5.21,11.28,3.87,24.39-3.3,34.45-10.36,14.55-30.24,18.92-45.74,9.77C8.88,60.37,1.92,49.66,1.39,38.41.45,18.43,15.07,2.62,34.91,1.52ZM33.76,5.97c-5.73.42-11.76,2.8-16.28,6.3C6.41,20.87,2.74,35.96,8.56,48.79c6.77,14.92,24.43,21.66,39.54,15.11,2.53-1.09,5.28-2.73,7.35-4.54.24-.21,1.07-.88.99-1.19-.08-.14-.29-.22-.44-.24-1.22-.17-2.9.05-4.19,0-6.35-.27-10.21-7.08-7.07-12.68,1.29-2.3,4.05-4.13,6.7-4.3,4.3-.27,8.9.26,13.21,0,.29-.02.75-.06.98-.22.38-.25.43-1.01.46-1.43.13-2.31.17-4.56-.06-6.86-.35-3.65-1.78-7.71-3.55-10.91-5.65-10.22-16.98-16.42-28.73-15.56ZM52.09,45.52c-2.12.06-3.84,1.94-3.76,4.05.16,4.4,6.5,5.13,7.66.85.67-2.5-1.33-4.97-3.9-4.9Z"/>
  <path d="M24.85,15.71c1.51-.1,3.54.18,5.05.42,6.47,1.03,12.99,4.18,18.29,7.96,3.75,2.68,7.48,6.21,9.91,10.16.44.71,1.5,2.24.55,2.9-.53.37-1.9.31-2.52.17-1.1-.25-1.78-1.53-2.5-2.32-6.27-6.91-15.35-12.41-24.44-14.64-3.19-.78-6.14-1.04-9.43-.95-.65.02-1.91.37-2.33-.29-.53-.83.9-1.71,1.5-2.01,1.74-.88,3.99-1.27,5.93-1.41Z"/>
  <path d="M19.14,23.88c8.63-.67,18.28,3.52,25.05,8.61,1.05.79,2.89,2.14,3.7,3.11.63.75.71,1.58-.43,1.78-1.04.18-3.55.14-4.66.06-1.56-.11-2.66-1.21-3.9-2.01-7.06-4.57-16.31-7.76-24.77-5.92-.54.12-1.19.37-1.72.43-1.6.18-1.43-1.2-.84-2.2,1.4-2.4,4.93-3.64,7.58-3.84Z"/>
  <path d="M34.91,10.21c10.49-.7,20.77,5.78,25.1,15.21.37.81,1.12,2.47,1.21,3.3.16,1.59-.76,1.34-1.59.49-.9-.92-1.74-2.01-2.67-2.94-5.78-5.78-14.11-10.73-22.02-12.87-1.3-.35-2.81-.54-4.05-.93-.93-.29-1.43-1.02-.31-1.52.91-.4,3.29-.68,4.34-.74Z"/>
  <path d="M17.78,32.58c3.67-.25,8.66.9,12.07,2.25.64.25,2.05.79,2.42,1.35.42.64-.19,1.1-.8,1.19-6.48.15-12.99.02-19.48.07-1.83.03-2.19-1.86-.83-2.87,1.56-1.16,4.68-1.85,6.61-1.98Z"/>
</svg>