<?xml version="1.0" encoding="UTF-8"?>
<svg id="Layer_1" xmlns="http://www.w3.org/2000/svg" version="1.1" viewBox="0 0 72 72">
  <!-- Generator: Adobe Illustrator 29.6.0, SVG Export Plug-In . SVG Version: 2.1.1 Build 207)  -->
  <path d="M59.68,21.39h-1.5c-1.63,0-2.95,1.32-2.95,2.95h0c0,1.63,1.32,2.95,2.95,2.95h1.47c3.55,0,6.46,2.91,6.46,6.46v25.53c0,3.57-2.92,6.46-6.46,6.46H12.35c-3.57,0-6.46-2.89-6.46-6.46v-25.56c0-3.54,2.89-6.43,6.46-6.43h1.47c1.63,0,2.95-1.32,2.95-2.95h0c0-1.63-1.32-2.95-2.95-2.95h-1.47c-6.82,0-12.35,5.53-12.35,12.35v25.53c0,6.82,5.53,12.35,12.35,12.35h47.29c6.82,0,12.35-5.53,12.35-12.35v-25.56c0-6.81-5.52-12.32-12.32-12.32Z"/>
  <path d="M21.08,33.73c0-.77.29-1.53.86-2.09,1.15-1.15,3.04-1.15,4.19,0l6.93,6.96V2.95c0-1.62,1.33-2.95,2.95-2.95s2.95,1.33,2.95,2.95v35.65l6.93-6.96c.56-.56,1.33-.85,2.09-.85s1.53.29,2.09.85c1.15,1.15,1.15,3.04,0,4.19l-11.97,11.97c-1.15,1.15-3.04,1.15-4.19,0l-11.97-11.97c-.56-.56-.86-1.33-.86-2.09Z"/>
</svg>