<?xml version="1.0" encoding="UTF-8"?>
<svg id="Layer_1" xmlns="http://www.w3.org/2000/svg" version="1.1" viewBox="0 0 72 72">
  <!-- Generator: Adobe Illustrator 29.6.0, SVG Export Plug-In . SVG Version: 2.1.1 Build 207)  -->
  <defs>
    <style>
      .st0 {
        font-family: Archivo-Medium, Archivo;
        font-size: 11.42px;
        font-weight: 500;
      }

      .st0, .st1 {
        fill: #fff;
      }

      .st2 {
        fill: #221f1f;
      }
    </style>
  </defs>
  <rect class="st2" x=".01" width="72" height="72" rx="21.82" ry="21.82"/>
  <text class="st0" transform="translate(15.06 60.25)"><tspan x="0" y="0">Receive</tspan></text>
  <g>
    <path class="st1" d="M46.09,20.35h-.64c-.69,0-1.26.56-1.26,1.26h0c0,.69.56,1.26,1.26,1.26h.63c1.51,0,2.75,1.24,2.75,2.75v10.87c0,1.52-1.24,2.75-2.75,2.75h-20.14c-1.52,0-2.75-1.23-2.75-2.75v-10.88c0-1.51,1.23-2.74,2.75-2.74h.63c.69,0,1.26-.56,1.26-1.26h0c0-.69-.56-1.26-1.26-1.26h-.63c-2.91,0-5.26,2.36-5.26,5.26v10.87c0,2.91,2.36,5.26,5.26,5.26h20.14c2.91,0,5.26-2.36,5.26-5.26v-10.88c0-2.9-2.35-5.25-5.25-5.25Z"/>
    <path class="st1" d="M29.66,25.6c0-.33.13-.65.36-.89.49-.49,1.29-.49,1.78,0l2.95,2.96v-15.18c0-.69.56-1.26,1.26-1.26s1.26.56,1.26,1.26v15.18l2.95-2.96c.24-.24.56-.36.89-.36s.65.13.89.36c.49.49.49,1.29,0,1.78l-5.1,5.1c-.49.49-1.29.49-1.78,0l-5.1-5.1c-.24-.24-.36-.56-.36-.89Z"/>
  </g>
</svg>