<?xml version="1.0" encoding="UTF-8"?>
<svg id="Layer_1" xmlns="http://www.w3.org/2000/svg" version="1.1" viewBox="0 0 216 216">
  <!-- Generator: Adobe Illustrator 29.6.0, SVG Export Plug-In . SVG Version: 2.1.1 Build 207)  -->
  <defs>
    <style>
      .st0 {
        fill: #231f20;
      }

      .st1 {
        stroke-width: 6px;
      }

      .st1, .st2 {
        fill: #fff;
      }

      .st1, .st2, .st3 {
        stroke: #231f20;
        stroke-miterlimit: 10;
      }

      .st4, .st3 {
        fill: none;
      }

      .st2, .st3 {
        stroke-width: 12px;
      }
    </style>
  </defs>
  <g>
    <path class="st0" d="M694.26,76.82h-37.02c-3.31,0-6,2.69-6,6h0c0,3.31,2.69,6,6,6h37.01c6.65,0,12.09,5.44,12.09,12.09v63.82c0,6.67-5.43,12.09-12.09,12.09h-126.83c-6.66,0-12.08-5.42-12.08-12.09v-63.83c0-6.67,5.41-12.08,12.08-12.08h37.02c3.31,0,6-2.69,6-6h0c0-3.31-2.69-6-6-6h-37.02c-13.3,0-24.08,10.78-24.08,24.08v63.83c0,13.3,10.79,24.09,24.09,24.09h126.82c13.3,0,24.09-10.79,24.09-24.09v-63.83c0-13.3-10.78-24.08-24.08-24.08Z"/>
    <rect class="st0" x="549.33" y="106.76" width="60.72" height="12" rx="6" ry="6"/>
    <rect class="st0" x="651.61" y="106.76" width="60.72" height="12" rx="6" ry="6"/>
  </g>
  <path class="st0" d="M671.08,55.9l-36.76-26.24s0,0-.01,0c-.1-.07-.2-.12-.31-.19-.14-.08-.27-.18-.41-.25,0,0,0,0-.01,0-.08-.04-.15-.06-.23-.1-.17-.08-.34-.16-.52-.22-.11-.04-.22-.06-.32-.09-.15-.04-.31-.1-.46-.13-.12-.02-.24-.03-.36-.05-.15-.02-.3-.05-.45-.06-.12,0-.24,0-.35,0-.15,0-.31,0-.46,0-.12,0-.23.03-.35.05-.15.02-.3.03-.46.06-.13.03-.25.07-.38.1-.14.04-.27.07-.41.11-.16.06-.31.13-.46.2-.1.04-.19.08-.29.12,0,0,0,0-.01,0-.13.06-.24.15-.36.22-.12.07-.24.14-.35.22,0,0,0,0-.01,0l-36.76,26.24c-2.7,1.92-3.32,5.67-1.4,8.37,1.93,2.7,5.67,3.32,8.37,1.4l27.28-19.47v84.89c0,3.31,2.69,6,6,6s6-2.69,6-6V46.2l27.27,19.47c2.7,1.92,6.44,1.3,8.37-1.4,1.92-2.7,1.3-6.44-1.4-8.37Z"/>
  <circle class="st0" cx="575.64" cy="156.82" r="8.84"/>
  <circle class="st0" cx="606.73" cy="156.82" r="8.84"/>
  <g>
    <path class="st0" d="M457.59,76.82h-37.02c-3.31,0-6,2.69-6,6h0c0,3.31,2.69,6,6,6h37.01c6.65,0,12.09,5.44,12.09,12.09v63.82c0,6.67-5.43,12.09-12.09,12.09h-126.83c-6.66,0-12.08-5.42-12.08-12.09v-63.83c0-6.67,5.41-12.08,12.08-12.08h37.02c3.31,0,6-2.69,6-6h0c0-3.31-2.69-6-6-6h-37.02c-13.3,0-24.08,10.78-24.08,24.08v63.83c0,13.3,10.79,24.09,24.09,24.09h126.82c13.3,0,24.09-10.79,24.09-24.09v-63.83c0-13.3-10.78-24.08-24.08-24.08Z"/>
    <rect class="st0" x="306.67" y="106.76" width="34.33" height="12" rx="6" ry="6"/>
    <rect class="st0" x="447.34" y="106.76" width="34.33" height="12" rx="6" ry="6"/>
  </g>
  <path class="st0" d="M353.92,109.74l36.76,26.24s0,0,.01,0c.1.07.2.12.31.19.14.08.27.18.41.25,0,0,0,0,.01,0,.08.04.15.06.23.1.17.08.34.16.52.22.11.04.22.06.32.09.15.04.31.1.46.13.12.02.24.03.36.05.15.02.3.05.45.06.12,0,.24,0,.35,0,.15,0,.31,0,.46,0,.12,0,.23-.03.35-.05.15-.02.3-.03.46-.06.13-.03.25-.07.38-.1.14-.04.27-.07.41-.11.16-.06.31-.13.46-.2.1-.04.19-.08.29-.12,0,0,0,0,.01,0,.13-.06.24-.15.36-.22.12-.07.24-.14.35-.22,0,0,0,0,.01,0l36.76-26.24c2.7-1.92,3.32-5.67,1.4-8.37-1.93-2.7-5.67-3.32-8.37-1.4l-27.28,19.47V34.56c0-3.31-2.69-6-6-6s-6,2.69-6,6v84.89l-27.27-19.47c-2.7-1.92-6.44-1.3-8.37,1.4-1.92,2.7-1.3,6.44,1.4,8.37Z"/>
  <circle class="st0" cx="338.97" cy="156.82" r="8.84"/>
  <circle class="st0" cx="370.06" cy="156.82" r="8.84"/>
  <rect class="st3" x="26.5" y="265.04" width="163" height="164.67" rx="18.08" ry="18.08"/>
  <rect class="st0" x="44.78" y="283.51" width="126.43" height="127.73" rx="12.06" ry="12.06"/>
  <g>
    <rect class="st1" x="55.66" y="381.39" width="43.96" height="14.92" rx="5.5" ry="5.5"/>
    <rect class="st1" x="55.66" y="366.47" width="43.96" height="14.92" rx="5.5" ry="5.5"/>
    <rect class="st1" x="65.7" y="351.55" width="43.96" height="14.92" rx="5.5" ry="5.5"/>
    <rect class="st1" x="55.66" y="336.63" width="43.96" height="14.92" rx="5.5" ry="5.5"/>
  </g>
  <path class="st2" d="M156.21,405.22l-49.31,7.85c-6.36,1.01-12.17-3.57-12.17-9.61v-96.36c0-4.75,3.66-8.81,8.67-9.61l49.31-7.85c6.36-1.01,12.17,3.57,12.17,9.61v96.36c0,4.75-3.66,8.81-8.67,9.61Z"/>
  <rect class="st1" x="-144.67" y="127.93" width="54" height="18.32" rx="-18.33" ry="-18.33"/>
  <rect class="st1" x="-144.67" y="109.6" width="54" height="18.32" rx="-18.33" ry="-18.33"/>
  <rect class="st1" x="-132.34" y="91.27" width="54" height="18.32" rx="-12.17" ry="-12.17"/>
  <rect class="st1" x="-144.67" y="72.95" width="54" height="18.32" rx="-18.33" ry="-18.33"/>
  <ellipse class="st0" cx="131.35" cy="353.48" rx="7.46" ry="13.42"/>
  <g>
    <path class="st4" d="M351.98-327.85h-126.83c-6.66,0-12.08,5.42-12.08,12.08v128.5c0,6.66,5.42,12.08,12.08,12.08h126.83c6.66,0,12.08-5.42,12.08-12.08v-128.5c0-6.66-5.42-12.08-12.08-12.08ZM351.78-199.71c0,6.66-5.4,12.06-12.06,12.06h-2.61l-48.71,7.75c-.91.14-1.81.22-2.72.22-3.99,0-7.86-1.39-10.9-3.99-1.35-1.15-2.47-2.5-3.34-3.98h-34.04c-6.66,0-12.06-5.4-12.06-12.06v-103.61c0-6.66,5.4-12.06,12.06-12.06h102.31c6.66,0,12.06,5.4,12.06,12.06v103.61Z"/>
    <path d="M351.98-339.85h-126.83c-13.28,0-24.08,10.8-24.08,24.08v128.5c0,13.28,10.8,24.08,24.08,24.08h126.83c13.28,0,24.08-10.8,24.08-24.08v-128.5c0-13.28-10.8-24.08-24.08-24.08ZM364.06-187.26c0,6.66-5.42,12.08-12.08,12.08h-126.83c-6.66,0-12.08-5.42-12.08-12.08v-128.5c0-6.66,5.42-12.08,12.08-12.08h126.83c6.66,0,12.08,5.42,12.08,12.08v128.5Z"/>
    <path d="M339.72-315.38h-102.31c-6.66,0-12.06,5.4-12.06,12.06v103.61c0,6.66,5.4,12.06,12.06,12.06h34.04c-1.39-2.35-2.15-5.03-2.15-7.78v-4.15h-27.56c-4.69,0-8.5-3.81-8.5-8.5v-3.92c0-2.1.77-4.02,2.03-5.5-1.26-1.48-2.03-3.4-2.03-5.5v-3.92c0-4.69,3.81-8.5,8.5-8.5h1.92c-.24-.79-.38-1.63-.38-2.5v-3.92c0-.87.13-1.71.38-2.5h-1.92c-4.69,0-8.5-3.81-8.5-8.5v-3.92c0-4.69,3.81-8.5,8.5-8.5h27.56v-26.54c0-7.73,5.77-14.27,13.73-15.53l49.31-7.85c4.92-.79,9.89.59,13.61,3.77,3.49,2.98,5.5,7.27,5.5,11.76v96.36c0,7.73-5.78,14.27-13.73,15.53l-.6.1h2.61c6.66,0,12.06-5.4,12.06-12.06v-103.61c0-6.66-5.4-12.06-12.06-12.06Z"/>
    <path d="M241.72-202.59c-3.04,0-5.5-2.46-5.5-5.5v-3.92c0-1.38.51-2.63,1.35-3.6-.88-.5-1.66-1.14-2.31-1.91-1.26,1.48-2.03,3.4-2.03,5.5v3.92c0,4.69,3.81,8.5,8.5,8.5h27.56v-3h-27.56Z"/>
    <path d="M241.72-205.59c-1.38,0-2.5-1.12-2.5-2.5v-3.92c0-1.38,1.12-2.5,2.5-2.5h27.56s-27.56,0-27.56,0c-1.51,0-2.93-.4-4.16-1.09-.84.96-1.35,2.22-1.35,3.6v3.92c0,3.04,2.46,5.5,5.5,5.5h27.56v-3h-27.56Z"/>
    <path d="M237.57-219.41c-.84-.96-1.35-2.22-1.35-3.6v-3.92c0-3.04,2.46-5.5,5.5-5.5h3.58c-.74-.87-1.31-1.88-1.66-3h-1.92c-4.69,0-8.5,3.81-8.5,8.5v3.92c0,2.1.77,4.02,2.03,5.5.65-.76,1.43-1.41,2.31-1.91Z"/>
    <path d="M237.57-215.6c1.01-1.16,2.49-1.9,4.15-1.9h27.56s-27.56,0-27.56,0c-1.66,0-3.15-.74-4.15-1.9-.88.5-1.66,1.14-2.31,1.91.65.76,1.43,1.41,2.31,1.91Z"/>
    <path d="M269.29-214.51v-3h-27.56c-1.66,0-3.15.74-4.15,1.9,1.23.69,2.65,1.09,4.16,1.09h27.56Z"/>
    <path d="M269.29-220.5h0s-27.56,0-27.56,0c-1.38,0-2.5-1.12-2.5-2.5v-3.92c0-1.38,1.12-2.5,2.5-2.5h27.56s-17.52,0-17.52,0c-2.59,0-4.9-1.17-6.47-3h-3.58c-3.04,0-5.5,2.46-5.5,5.5v3.92c0,1.38.51,2.63,1.35,3.6,1.23-.69,2.65-1.09,4.16-1.09h27.56Z"/>
    <path d="M241.72-220.5c-1.51,0-2.93.4-4.16,1.09,1.01,1.16,2.49,1.9,4.15,1.9h27.56v-3h-27.56Z"/>
    <path d="M246.26-237.93v-3.92c0-.9.22-1.75.61-2.5h-3.23c-.24.79-.38,1.63-.38,2.5v3.92c0,.87.13,1.71.38,2.5h3.23c-.39-.75-.61-1.6-.61-2.5Z"/>
    <path d="M269.29-232.42h0s-17.52,0-17.52,0c-2.13,0-3.98-1.22-4.89-3h-3.23c.34,1.12.92,2.13,1.66,3h23.99Z"/>
    <path d="M251.76-229.43h17.52v-3h-23.99c1.56,1.83,3.88,3,6.47,3Z"/>
    <path d="M269.29-235.43h-17.52c-1.38,0-2.5-1.12-2.5-2.5v-3.92c0-1.38,1.12-2.5,2.5-2.5h17.52s-22.42,0-22.42,0c-.39.75-.61,1.6-.61,2.5v3.92c0,.9.22,1.75.61,2.5h22.42Z"/>
    <path d="M246.87-235.42c.91,1.78,2.76,3,4.89,3h17.52v-3h-22.42Z"/>
    <path d="M241.72-247.35c-3.04,0-5.5-2.46-5.5-5.5v-3.92c0-3.04,2.46-5.5,5.5-5.5h27.56v-3h-27.56c-4.69,0-8.5,3.81-8.5,8.5v3.92c0,4.69,3.81,8.5,8.5,8.5h1.92c.34-1.12.92-2.13,1.66-3h-3.58Z"/>
    <path d="M251.76-247.34h17.52s-23.99,0-23.99,0c-.74.87-1.31,1.88-1.66,3h3.23c.91-1.78,2.76-3,4.89-3Z"/>
    <path d="M269.29-247.34h-17.52c-2.13,0-3.98,1.22-4.89,3h22.42v-3Z"/>
    <path d="M251.76-250.34h17.52s-27.56,0-27.56,0c-1.38,0-2.5-1.12-2.5-2.5v-3.92c0-1.38,1.12-2.5,2.5-2.5h27.56v-3h-27.56c-3.04,0-5.5,2.46-5.5,5.5v3.92c0,3.04,2.46,5.5,5.5,5.5h3.58c1.56-1.83,3.88-3,6.47-3Z"/>
    <path d="M251.76-250.34c-2.59,0-4.9,1.17-6.47,3h23.99v-3h-17.52Z"/>
    <path d="M287.45-185.83c-2.97.47-5.8-.28-7.99-1.82h-8.02c.88,1.48,2,2.83,3.34,3.98,3.04,2.6,6.9,3.99,10.9,3.99.9,0,1.81-.07,2.72-.22l48.71-7.75h-38.19l-11.47,1.82Z"/>
    <path d="M275.29-195.43v-4.18c-.2.01-.4.03-.6.03h-5.4v4.15c0,2.76.76,5.43,2.15,7.78h8.02c-2.51-1.76-4.17-4.56-4.17-7.78Z"/>
    <path d="M351.44-203.28v-96.36c0-4.49-2-8.78-5.5-11.76-3.73-3.18-8.69-4.56-13.61-3.77l-49.31,7.85c-7.96,1.27-13.73,7.8-13.73,15.53v26.54h5.4c.2,0,.4.02.6.03v-26.57c0-4.75,3.66-8.81,8.67-9.61l49.31-7.85c6.36-1.01,12.17,3.57,12.17,9.61v96.36c0,4.75-3.66,8.81-8.67,9.61l-37.85,6.02h38.19l.6-.1c7.96-1.27,13.73-7.8,13.73-15.53Z"/>
    <path d="M269.29-214.5v8.92h5.4c.21,0,.41-.03.6-.08v-8.75c-.19-.05-.39-.08-.6-.08h-5.4Z"/>
    <path d="M275.29-199.62v-3c-.2.02-.4.03-.6.03h-5.4v3h5.4c.2,0,.4-.02.6-.03Z"/>
    <path d="M269.29-214.51h0s5.4,0,5.4,0c.21,0,.41.03.6.08v-.12c-.2.01-.4.03-.6.03h-5.4Z"/>
    <path d="M274.68-205.59h-5.4v3h5.4c.2,0,.4-.01.6-.03v-3.05c-.19.05-.39.08-.6.08Z"/>
    <path d="M275.29-220.59v-8.75c-.19-.05-.39-.08-.6-.08h-5.4v8.92h5.4c.21,0,.41-.03.6-.08Z"/>
    <path d="M275.29-217.47v-.07c-.2.02-.4.03-.6.03h-5.4s5.4,0,5.4,0c.2,0,.4.01.6.03Z"/>
    <path d="M274.68-214.51c.2,0,.4-.02.6-.03v-2.93c-.2-.02-.4-.03-.6-.03h-5.4v3h5.4Z"/>
    <path d="M275.29-229.34v-.09h-6s5.4,0,5.4,0c.21,0,.41.03.6.08Z"/>
    <path d="M274.68-220.51h-5.4s5.4,0,5.4,0c.2,0,.4.02.6.03v-.12c-.19.05-.39.08-.6.08Z"/>
    <path d="M275.29-217.54v-2.93c-.2-.01-.4-.03-.6-.03h-5.4v3h5.4c.2,0,.4-.01.6-.03Z"/>
    <rect x="269.29" y="-244.34" width="6" height="8.92"/>
    <path d="M275.29-232.39v-.04h-6s5.4,0,5.4,0c.2,0,.4.01.6.03Z"/>
    <path d="M275.29-229.43v-2.96c-.2-.02-.4-.03-.6-.03h-5.4v3h6Z"/>
    <path d="M269.29-235.43h0s5.4,0,5.4,0c.2,0,.4.02.6.03v-.03h-6Z"/>
    <path d="M275.29-244.38c-.2.01-.4.03-.6.03h-5.4s6,0,6,0v-.03Z"/>
    <path d="M275.29-235.39c-.2-.01-.4-.03-.6-.03h-5.4v3h6v-2.97Z"/>
    <path d="M275.29-250.43v-8.75c-.19-.05-.39-.08-.6-.08h-5.4v8.92h5.4c.21,0,.41-.03.6-.08Z"/>
    <path d="M274.68-262.26c.2,0,.4.01.6.03v-3c-.2-.01-.4-.03-.6-.03h-5.4v3h5.4Z"/>
    <path d="M275.29-247.38c-.2.02-.4.03-.6.03h-5.4s6,0,6,0v-.04Z"/>
    <path d="M274.68-244.35c.2,0,.4-.02.6-.03v-2.97h-6v3h5.4Z"/>
    <path d="M274.68-250.35h-5.4s6,0,6,0v-.09c-.19.05-.39.08-.6.08Z"/>
    <path d="M274.68-259.26c.21,0,.41.03.6.08v-3.05c-.2-.02-.4-.03-.6-.03h-5.4v3h5.4Z"/>
    <path d="M275.29-247.38v-2.96h-6v3h5.4c.2,0,.4-.01.6-.03Z"/>
    <path d="M287.45-185.83l11.47-1.82h-19.46c2.19,1.54,5.03,2.3,7.99,1.82Z"/>
    <path d="M281.15-217.5c.05.05.09.11.14.16v-.32c-.04.05-.09.11-.14.16Z"/>
    <path d="M281.29-262.1v-29.69c0-1.8,1.52-3.35,3.61-3.68l49.31-7.85c.28-.04.55-.07.83-.07,1.16,0,2.26.39,3.11,1.12.48.41,1.29,1.3,1.29,2.63v96.36c0,1.8-1.52,3.35-3.62,3.68l-49.31,7.85c-1.45.23-2.88-.15-3.94-1.05-.48-.41-1.29-1.3-1.29-2.63v-7.31c-1.44,1.78-3.58,2.96-6,3.13v4.18c0,3.22,1.66,6.02,4.17,7.78h19.46l37.85-6.02c5.01-.8,8.67-4.86,8.67-9.61v-96.36c0-6.04-5.81-10.62-12.17-9.61l-49.31,7.85c-5.01.8-8.67,4.86-8.67,9.61v26.57c2.42.17,4.56,1.35,6,3.13Z"/>
    <path d="M277.18-208.09v-3.92c0-1.17-.81-2.15-1.9-2.42v8.75c1.09-.27,1.9-1.25,1.9-2.42Z"/>
    <path d="M281.29-202.75v-14.6c-.04-.05-.09-.11-.14-.16-.65.76-1.43,1.41-2.31,1.91.84.96,1.35,2.22,1.35,3.6v3.92c0,2.83-2.14,5.16-4.9,5.47v3c2.42-.17,4.56-1.35,6-3.13Z"/>
    <path d="M280.18-208.09v-3.92c0-1.38-.51-2.63-1.35-3.6-1.06.6-2.27.97-3.55,1.06v.12c1.09.27,1.9,1.25,1.9,2.42v3.92c0,1.17-.81,2.15-1.9,2.42v3.05c2.75-.3,4.9-2.63,4.9-5.47Z"/>
    <path d="M277.18-223.01v-3.92c0-1.17-.81-2.15-1.9-2.42v8.75c1.09-.27,1.9-1.25,1.9-2.42Z"/>
    <path d="M281.29-229.43h-1.71c.39.75.61,1.6.61,2.5v3.92c0,1.38-.51,2.63-1.35,3.6.88.5,1.66,1.14,2.31,1.91.05-.05.09-.11.14-.16v-11.76Z"/>
    <path d="M278.84-219.41c-.88,1.02-2.14,1.71-3.55,1.87v.07c1.42.15,2.67.85,3.55,1.87.88-.5,1.66-1.14,2.31-1.91-.65-.76-1.43-1.41-2.31-1.91Z"/>
    <path d="M275.29-217.47v2.93c1.28-.09,2.49-.46,3.55-1.06-.88-1.02-2.14-1.71-3.55-1.87Z"/>
    <path d="M280.18-223.01v-3.92c0-.9-.22-1.75-.61-2.5h-4.29v.09c1.09.27,1.9,1.25,1.9,2.42v3.92c0,1.17-.81,2.15-1.9,2.42v.12c1.28.09,2.49.46,3.55,1.06.84-.96,1.35-2.22,1.35-3.6Z"/>
    <path d="M278.84-219.41c-1.06-.6-2.27-.97-3.55-1.06v2.93c1.42-.15,2.67-.85,3.55-1.87Z"/>
    <rect x="275.29" y="-244.34" width="6" height="8.92"/>
    <path d="M281.15-232.43c.05.05.09.11.14.16v-.16h-.14Z"/>
    <path d="M281.29-247.5c-.04.06-.09.11-.14.16h.14v-.16Z"/>
    <path d="M279.58-229.43h1.71v-2.84c-.05-.06-.09-.11-.14-.16h-5.86v.04c1.88.2,3.47,1.35,4.29,2.96Z"/>
    <path d="M275.29-232.39v2.96h4.29c-.82-1.61-2.41-2.76-4.29-2.96Z"/>
    <path d="M281.29-244.34v-3h-.14c-1.44,1.69-3.52,2.8-5.86,2.97v.03h6Z"/>
    <path d="M281.15-232.43h.14v-3h-6v.03c2.34.17,4.42,1.28,5.86,2.97Z"/>
    <path d="M275.29-235.39v2.97h5.86c-1.44-1.69-3.52-2.8-5.86-2.97Z"/>
    <path d="M277.18-252.85v-3.92c0-1.17-.81-2.15-1.9-2.42v8.75c1.09-.27,1.9-1.25,1.9-2.42Z"/>
    <path d="M280.18-256.76v3.92c0,.9-.22,1.75-.61,2.5h1.71v-11.76c-1.44-1.78-3.58-2.96-6-3.13v3c2.75.3,4.9,2.63,4.9,5.47Z"/>
    <path d="M275.29-247.38v.04h5.86c.05-.05.09-.11.14-.16v-2.84h-1.71c-.82,1.61-2.41,2.76-4.29,2.96Z"/>
    <path d="M281.15-247.34h-5.86v2.97c2.34-.17,4.42-1.28,5.86-2.97Z"/>
    <path d="M277.18-256.76v3.92c0,1.17-.81,2.15-1.9,2.42v.09h4.29c.39-.75.61-1.6.61-2.5v-3.92c0-2.83-2.14-5.16-4.9-5.47v3.05c1.09.27,1.9,1.25,1.9,2.42Z"/>
    <path d="M275.29-247.38c1.88-.2,3.47-1.35,4.29-2.96h-4.29v2.96Z"/>
    <ellipse cx="311.9" cy="-245.41" rx="7.46" ry="13.42"/>
  </g>
  <g>
    <path class="st0" d="M171.42,76.13h-37.02c-3.31,0-6,2.69-6,6h0c0,3.31,2.69,6,6,6h37.01c6.65,0,12.09,5.44,12.09,12.09v63.82c0,6.67-5.43,12.09-12.09,12.09H44.58c-6.66,0-12.08-5.42-12.08-12.09v-63.83c0-6.67,5.41-12.08,12.08-12.08h37.02c3.31,0,6-2.69,6-6h0c0-3.31-2.69-6-6-6h-37.02c-13.3,0-24.08,10.78-24.08,24.08v63.83c0,13.3,10.79,24.09,24.09,24.09h126.82c13.3,0,24.09-10.79,24.09-24.09v-63.83c0-13.3-10.78-24.08-24.08-24.08Z"/>
    <rect class="st0" x="20.5" y="106.07" width="34.33" height="12" rx="6" ry="6"/>
    <rect class="st0" x="161.17" y="106.07" width="34.33" height="12" rx="6" ry="6"/>
  </g>
  <path class="st0" d="M67.75,109.05l36.76,26.24s0,0,.01,0c.1.07.2.12.31.19.14.08.27.18.41.25,0,0,0,0,.01,0,.08.04.15.06.23.1.17.08.34.16.52.22.11.04.22.06.32.09.15.04.31.1.46.13.12.02.24.03.36.05.15.02.3.05.45.06.12,0,.24,0,.35,0,.15,0,.31,0,.46,0,.12,0,.23-.03.35-.05.15-.02.3-.03.46-.06.13-.03.25-.07.38-.1.14-.04.27-.07.41-.11.16-.06.31-.13.46-.2.1-.04.19-.08.29-.12,0,0,0,0,.01,0,.13-.06.24-.15.36-.22.12-.07.24-.14.35-.22,0,0,0,0,.01,0l36.76-26.24c2.7-1.92,3.32-5.67,1.4-8.37-1.93-2.7-5.67-3.32-8.37-1.4l-27.28,19.47V33.87c0-3.31-2.69-6-6-6s-6,2.69-6,6v84.89l-27.27-19.47c-2.7-1.92-6.44-1.3-8.37,1.4-1.92,2.7-1.3,6.44,1.4,8.37Z"/>
  <circle class="st0" cx="52.8" cy="156.13" r="8.84"/>
  <circle class="st0" cx="83.89" cy="156.13" r="8.84"/>
</svg>