<?xml version="1.0" encoding="UTF-8"?>
<svg id="Layer_1" xmlns="http://www.w3.org/2000/svg" version="1.1" viewBox="0 0 72 72">
  <!-- Generator: Adobe Illustrator 29.6.0, SVG Export Plug-In . SVG Version: 2.1.1 Build 207)  -->
  <path d="M69.56,23.85l-5.88-10.33c-.82-1.44-2.66-1.94-4.1-1.12l-6.38,3.64c-2.41-2.07-5.2-3.71-8.25-4.81V3.9c0-1.66-1.34-3-3-3h-11.89c-1.66,0-3,1.34-3,3v7.33c-2.36.85-4.56,2.03-6.56,3.48l-6.07-4.14c-1.37-.94-3.24-.58-4.17.79l-6.7,9.82c-.94,1.37-.58,3.24.79,4.17l6.05,4.13c-.55,2.13-.85,4.36-.85,6.65,0,1.55.14,3.07.4,4.55l-6.37,3.63c-1.44.82-1.94,2.66-1.12,4.1l5.88,10.33c.82,1.44,2.66,1.94,4.1,1.12l6.38-3.64c2.41,2.07,5.2,3.71,8.25,4.81v7.33c0,1.66,1.34,3,3,3h11.89c1.66,0,3-1.34,3-3v-7.33c2.36-.85,4.56-2.03,6.56-3.48l6.07,4.14c1.37.94,3.24.58,4.17-.79l6.7-9.82c.94-1.37.58-3.24-.79-4.17l-6.05-4.13c.55-2.13.85-4.36.85-6.65,0-1.55-.14-3.07-.4-4.55l6.37-3.63c1.44-.82,1.94-2.66,1.12-4.1ZM36,54.91c-10.36,0-18.79-8.43-18.79-18.79s8.43-18.79,18.79-18.79,18.79,8.43,18.79,18.79-8.43,18.79-18.79,18.79Z"/>
  <g>
    <path d="M25.04,38.56h-1.62v2.95h-2.97v-11.1h4.79c2.86,0,4.66,1.57,4.66,4.11,0,1.63-.75,2.84-2.05,3.51l2.26,3.49h-3.18l-1.9-2.95ZM25.07,32.88h-1.65v3.25h1.65c1.23,0,1.84-.6,1.84-1.62s-.61-1.63-1.84-1.63Z"/>
    <path d="M41,34.51c0,2.52-1.8,4.09-4.66,4.09h-1.83v2.9h-2.97v-11.1h4.79c2.86,0,4.66,1.57,4.66,4.11ZM38,34.51c0-1.03-.61-1.63-1.84-1.63h-1.65v3.25h1.65c1.23,0,1.84-.6,1.84-1.62Z"/>
    <path d="M42.04,35.96c0-3.38,2.44-5.77,5.77-5.77,1.93,0,3.49.75,4.51,2.09l-1.89,1.81c-.66-.84-1.47-1.3-2.47-1.3-1.72,0-2.92,1.27-2.92,3.17s1.2,3.17,2.92,3.17c1,0,1.81-.46,2.47-1.3l1.89,1.81c-1.02,1.35-2.58,2.09-4.51,2.09-3.33,0-5.77-2.4-5.77-5.77Z"/>
  </g>
</svg>