<?xml version="1.0" encoding="UTF-8"?>
<svg id="Layer_1" xmlns="http://www.w3.org/2000/svg" version="1.1" viewBox="0 0 72 72">
  <!-- Generator: Adobe Illustrator 29.6.0, SVG Export Plug-In . SVG Version: 2.1.1 Build 207)  -->
  <path d="M61.58,22.62h-8.57c-3.82,0-6.93,3.1-6.93,6.93v20.02c0,6.21-5.67,11.14-12.1,9.88-4.78-.94-8.06-5.43-8.06-10.3v-19.6c0-3.82-3.1-6.93-6.93-6.93h-8.6C4.8,22.62.26,27.16.26,32.76v27.65c0,5.62,4.55,10.17,10.17,10.17h51.15c5.62,0,10.17-4.55,10.17-10.17v-27.62c0-5.62-4.55-10.17-10.17-10.17Z"/>
  <path d="M23.06,19.46c.83,0,1.66-.32,2.26-.92l7.49-7.53v38.55c0,1.75,1.44,3.19,3.19,3.19s3.19-1.44,3.19-3.19V11.01l7.49,7.53c1.24,1.24,3.28,1.24,4.53,0,.61-.61.92-1.44.92-2.26s-.32-1.66-.92-2.26L38.27,1.06c-1.24-1.24-3.28-1.24-4.53,0l-12.95,12.95c-1.24,1.24-1.24,3.28,0,4.53.61.61,1.44.92,2.26.92Z"/>
</svg>