<?xml version="1.0" encoding="UTF-8"?>
<svg id="Layer_1" xmlns="http://www.w3.org/2000/svg" version="1.1" viewBox="0 0 72 72">
  <!-- Generator: Adobe Illustrator 29.6.0, SVG Export Plug-In . SVG Version: 2.1.1 Build 207)  -->
  <defs>
    <style>
      .st0 {
        font-family: Archivo-Medium, Archivo;
        font-size: 11.42px;
        font-weight: 500;
      }

      .st0, .st1 {
        fill: #fff;
      }

      .st2 {
        fill: #221f1f;
      }
    </style>
  </defs>
  <rect class="st2" width="72" height="72" rx="21.82" ry="21.82"/>
  <text class="st0" transform="translate(22.44 60.26)"><tspan x="0" y="0">Send</tspan></text>
  <g>
    <path class="st1" d="M45.41,20.9h-2.64c-.65,0-1.17.52-1.17,1.17h0c0,.65.52,1.17,1.17,1.17h2.63c1.41,0,2.57,1.16,2.57,2.57v10.15c0,1.42-1.16,2.57-2.57,2.57h-18.81c-1.42,0-2.57-1.15-2.57-2.57v-10.16c0-1.41,1.15-2.56,2.57-2.56h2.63c.65,0,1.17-.52,1.17-1.17h0c0-.65-.52-1.17-1.17-1.17h-2.63c-2.71,0-4.91,2.2-4.91,4.91v10.15c0,2.71,2.2,4.91,4.91,4.91h18.81c2.71,0,4.91-2.2,4.91-4.91v-10.16c0-2.71-2.19-4.9-4.9-4.9Z"/>
    <path class="st1" d="M41.93,18.33c0,.3-.12.61-.34.83-.46.46-1.21.46-1.66,0l-2.76-2.77v14.17c0,.64-.53,1.17-1.17,1.17s-1.17-.53-1.17-1.17v-14.17l-2.76,2.77c-.22.22-.53.34-.83.34s-.61-.12-.83-.34c-.46-.46-.46-1.21,0-1.66l4.76-4.76c.46-.46,1.21-.46,1.66,0l4.76,4.76c.22.22.34.53.34.83Z"/>
  </g>
</svg>