<?xml version="1.0" encoding="UTF-8"?>
<svg id="Layer_1" xmlns="http://www.w3.org/2000/svg" version="1.1" viewBox="0 0 72 72">
  <!-- Generator: Adobe Illustrator 29.6.0, SVG Export Plug-In . SVG Version: 2.1.1 Build 207)  -->
  <defs>
    <style>
      .st0 {
        fill: #221f1f;
      }

      .st1, .st2 {
        fill: #fff;
      }

      .st2 {
        font-family: Archivo-Medium, Archivo;
        font-size: 11.4px;
        font-weight: 500;
      }
    </style>
  </defs>
  <rect class="st0" y=".02" width="71.86" height="71.86" rx="21.82" ry="21.82"/>
  <g>
    <path class="st1" d="M47.33,27.33l-.29-.62h-.69c-2.35-.02-4.34.28-5.96.87-.1.04-.21.08-.32.13-.09.04-.18.08-.27.12-.2.09-.38.19-.56.28-.07.04-.15.08-.22.12-.07.04-.14.08-.21.12-.05.03-.09.06-.14.09-.14.08-.28.17-.41.26-.11.07-.21.16-.31.23-.09.07-.17.13-.26.2-.14.12-.27.25-.4.37-.04.04-.08.08-.12.12-.17.18-.33.36-.48.55-.31.41-.57.83-.76,1.26-.1.22-.2.45-.27.67-.05.15-.1.3-.14.46-.07.26-.13.54-.17.82-.01.08-.02.16-.03.23-.02.1-.03.21-.03.32,0,.07-.01.13-.01.2,0,.08-.01.16,0,.24,0,.13,0,.26,0,.38v.18s-.26.05-.83,0c0,0,0,0,0,0,0,0,0,0,0,0-.44-.06-.86-.13-1.25-.2,0,0,0,0,0,0,0,0,0,0,0,0-4.16-.78-5.83-2.21-6.49-3.36-.54-.95-.5-1.89-.38-2.49,3.47.1,5.87.98,7.13,2.6.14.19.27.37.37.56.28-.68.66-1.41,1.18-2.1-1.81-2.17-5.01-3.23-9.47-3.24h-.68s-.29.62-.29.62c-.05.1-1.18,2.55.24,5.09,1.43,2.55,4.81,4.15,10.07,4.77v5.61c0,.6.49,1.09,1.09,1.09h0c.6,0,1.09-.49,1.09-1.09v-5.61h0c5.25-.61,8.64-2.22,10.07-4.77,1.42-2.54.29-4.98.24-5.09ZM38.62,28.47s-.02.01-.03.02c.01,0,.02-.01.03-.02ZM45.19,31.35c-.71,1.26-2.64,2.87-7.75,3.58-.05-.89.07-2.27.99-3.45,1.26-1.62,3.65-2.49,7.13-2.6.12.59.16,1.53-.36,2.46Z"/>
    <path class="st1" d="M35.93,26.69c4.7,0,8.53-3.82,8.53-8.53s-3.83-8.53-8.53-8.53-8.53,3.83-8.53,8.53,3.82,8.53,8.53,8.53ZM35.93,11.8c3.51,0,6.36,2.85,6.36,6.36s-2.85,6.36-6.36,6.36-6.36-2.85-6.36-6.36,2.85-6.36,6.36-6.36Z"/>
    <path class="st1" d="M35.98,20.77c-.72,0-1.21-.4-1.35-1.05h-1.37c.09,1.08.81,1.86,2.1,2.04v.91h1.18v-.91c1.24-.17,2.05-.87,2.05-2.1,0-1.16-.59-1.83-2.28-2.3-1.2-.33-1.49-.58-1.49-1.12,0-.41.26-.86,1.04-.86.88,0,1.09.49,1.19.88h1.37c-.08-.81-.55-1.68-1.95-1.88v-.73h-1.17v.74c-1.07.18-1.87.88-1.87,1.97s.59,1.7,2.37,2.22c1.1.32,1.41.63,1.41,1.23,0,.54-.35.96-1.22.96Z"/>
  </g>
  <text class="st2" transform="translate(21.07 60.16)"><tspan x="0" y="0">Stake</tspan></text>
</svg>