<?xml version="1.0" encoding="UTF-8"?>
<svg id="Layer_1" xmlns="http://www.w3.org/2000/svg" version="1.1" viewBox="0 0 144 144">
  <!-- Generator: Adobe Illustrator 29.6.0, SVG Export Plug-In . SVG Version: 2.1.1 Build 207)  -->
  <g>
    <path d="M105.65,69.26c-1.08,0-2.16-.41-2.99-1.24-1.65-1.65-1.65-4.32,0-5.97l6.75-6.75c.63-.63.97-1.46.97-2.35,0-.9-.35-1.73-.98-2.36-1.3-1.3-3.41-1.3-4.71,0l-6.75,6.75c-1.65,1.65-4.32,1.65-5.97,0-1.65-1.65-1.65-4.32,0-5.97l6.75-6.75c2.22-2.22,5.18-3.45,8.33-3.45s6.1,1.23,8.33,3.45c2.23,2.23,3.46,5.19,3.45,8.34,0,3.13-1.22,6.09-3.45,8.32l-6.75,6.75c-.82.82-1.91,1.24-2.99,1.24Z"/>
    <path d="M69.56,102.22c-3.02,0-6.04-1.15-8.33-3.45-4.59-4.59-4.59-12.06,0-16.66l7.16-7.16c1.65-1.65,4.32-1.65,5.97,0,1.65,1.65,1.65,4.32,0,5.97l-7.16,7.16c-1.3,1.3-1.3,3.41,0,4.71,1.3,1.3,3.41,1.3,4.71,0l7.16-7.16c1.65-1.65,4.32-1.65,5.97,0,1.65,1.65,1.65,4.32,0,5.97l-7.16,7.16c-2.29,2.3-5.31,3.44-8.33,3.44Z"/>
    <path d="M107.04,102.22c-3.13,0-6.09-1.22-8.31-3.45l-7.05-7.05c-1.65-1.65-1.65-4.32,0-5.97,1.65-1.65,4.32-1.65,5.97,0l7.05,7.05c.63.63,1.46.97,2.34.97h0c.9,0,1.74-.35,2.36-.98,1.3-1.3,1.3-3.41,0-4.71l-6.87-6.87c-1.65-1.65-1.65-4.32,0-5.97,1.65-1.65,4.32-1.65,5.97,0l6.87,6.87c4.59,4.59,4.59,12.07,0,16.66-2.22,2.23-5.18,3.45-8.33,3.45h-.02Z"/>
    <path d="M71.26,69.56c-1.08,0-2.16-.41-2.99-1.24l-7.05-7.05c-4.59-4.59-4.59-12.07,0-16.66,4.59-4.59,12.06-4.59,16.66,0l6.87,6.87c1.65,1.65,1.65,4.32,0,5.97-1.65,1.65-4.32,1.65-5.97,0l-6.87-6.87c-1.3-1.3-3.41-1.3-4.71,0-1.3,1.3-1.3,3.42,0,4.71l7.05,7.05c1.65,1.65,1.65,4.32,0,5.97-.82.82-1.91,1.24-2.99,1.24Z"/>
    <path d="M81.76,58.69c-1.68,0-3.27-1.01-3.93-2.67-.86-2.17.2-4.62,2.37-5.48,5.22-2.07,10.98-2.12,16.24-.14,2.18.82,3.29,3.26,2.47,5.44-.82,2.18-3.25,3.29-5.44,2.47-3.29-1.23-6.89-1.2-10.15.09-.51.2-1.04.3-1.55.3Z"/>
    <path d="M105.53,82.46c-.52,0-1.04-.1-1.55-.3-2.17-.86-3.23-3.31-2.37-5.48,1.29-3.26,1.32-6.87.09-10.15-.82-2.18.29-4.62,2.47-5.44,2.18-.82,4.62.29,5.44,2.47,1.97,5.25,1.92,11.02-.15,16.23-.66,1.66-2.25,2.67-3.93,2.67Z"/>
    <path d="M71.37,82.17c-1.71,0-3.32-1.05-3.96-2.74-1.87-4.99-1.92-10.5-.13-15.51.78-2.2,3.2-3.34,5.4-2.56,2.2.78,3.34,3.2,2.56,5.4-1.12,3.14-1.09,6.58.08,9.71.82,2.18-.29,4.62-2.47,5.44-.49.18-.99.27-1.48.27Z"/>
    <path d="M88.5,94.02c-2.69,0-5.38-.48-7.93-1.44-2.18-.82-3.29-3.25-2.47-5.44.82-2.18,3.26-3.29,5.44-2.47,3.12,1.17,6.57,1.2,9.71.08,2.2-.78,4.61.36,5.4,2.56.78,2.2-.36,4.61-2.56,5.4-2.45.87-5.01,1.31-7.58,1.31Z"/>
    <path d="M88.3,80.89c-2.46,0-4.77-.96-6.5-2.69-1.74-1.74-2.69-4.05-2.69-6.5s.96-4.77,2.69-6.5c1.74-1.74,4.05-2.69,6.5-2.69s4.77.96,6.5,2.69c1.74,1.74,2.69,4.05,2.69,6.5s-.96,4.77-2.69,6.5c-1.74,1.74-4.05,2.69-6.5,2.69ZM88.3,67.43c-1.09,0-2.19.42-3.02,1.25-1.66,1.66-1.66,4.37,0,6.04,1.67,1.66,4.37,1.66,6.04,0,1.66-1.66,1.66-4.37,0-6.04-.83-.83-1.92-1.25-3.02-1.25Z"/>
  </g>
  <path d="M120.26,124.82H23.74c-12.7,0-23.04-10.33-23.04-23.04v-59.58c0-12.7,10.33-23.04,23.04-23.04h96.53c12.7,0,23.04,10.33,23.04,23.04v59.58c0,12.7-10.33,23.04-23.04,23.04ZM23.74,27.62c-8.04,0-14.59,6.54-14.59,14.59v59.58c0,8.04,6.54,14.59,14.59,14.59h96.53c8.04,0,14.59-6.54,14.59-14.59v-59.58c0-8.04-6.54-14.59-14.59-14.59H23.74Z"/>
</svg>