<?xml version="1.0" encoding="UTF-8"?>
<svg id="Layer_1" xmlns="http://www.w3.org/2000/svg" version="1.1" viewBox="0 0 72 72">
  <!-- Generator: Adobe Illustrator 29.6.0, SVG Export Plug-In . SVG Version: 2.1.1 Build 207)  -->
  <g>
    <path d="M-212.29-686.28c19.72-2.34,36.52-20.4,39.83-39.52.98-5.64.13-11.57,3.07-16.39,6.06-9.92,19.98-10.48,26.67-.93,5.89,8.41,1.39,27.51-2.01,36.82-10.77,29.49-38.47,49.92-69.77,52.24l-189.78-.02c5.2,7.86,23.01,19.32,24.52,28.24,2.57,15.13-12.76,25.29-25.29,16.31-14.21-17.25-37.21-33.27-50.53-50.52-4.68-6.06-4.65-13.57-.35-19.85,17.06-14.06,33.05-37.05,50.13-50.17,12.3-9.45,28.15-.43,26.23,15.01-1.12,8.99-19.56,20.98-24.72,28.8h192Z"/>
    <path d="M-194.7-813.53h-192c-12.04,0-28.63,13.88-34.37,24.01-6.24,11.01-4.4,16.84-6.59,27.84-1.99,10.03-15.39,14.91-24.04,9.4-10.46-6.66-7.74-22.28-5.23-32.68,8.14-33.69,37.98-58.24,72.45-60.79l189.78.02c-5.2-7.86-23.01-19.32-24.52-28.24-2.57-15.09,12.75-25.4,25.29-16.31,14.21,17.25,37.21,33.27,50.53,50.52,5.29,6.86,4.47,14.4-.76,20.99-13.4,16.88-34.88,32.21-49.02,49.04-12.12,9.24-28.17.61-26.23-15.01,1.12-8.99,19.56-20.98,24.72-28.8Z"/>
  </g>
  <g>
    <path d="M-75.52,148.34c5.49-.65,10.18-5.68,11.1-11.01.27-1.57.04-3.22.86-4.57,1.69-2.77,5.57-2.92,7.43-.26,1.64,2.34.39,7.66-.56,10.26-3,8.22-10.72,13.91-19.44,14.56h-52.88c1.45,2.18,6.41,5.38,6.83,7.86.72,4.22-3.55,7.05-7.05,4.54-3.96-4.81-10.37-9.27-14.08-14.08-1.3-1.69-1.29-3.78-.1-5.53,4.75-3.92,9.21-10.32,13.97-13.98,3.43-2.63,7.84-.12,7.31,4.18-.31,2.5-5.45,5.84-6.89,8.02h53.5Z"/>
    <path d="M-70.62,112.88h-53.5c-3.35,0-7.98,3.87-9.58,6.69-1.74,3.07-1.23,4.69-1.84,7.76-.56,2.79-4.29,4.15-6.7,2.62-2.92-1.85-2.16-6.21-1.46-9.11,2.27-9.39,10.58-16.23,20.19-16.94h52.88c-1.45-2.18-6.41-5.38-6.83-7.86-.72-4.21,3.55-7.08,7.05-4.54,3.96,4.81,10.37,9.27,14.08,14.08,1.47,1.91,1.25,4.01-.21,5.85-3.73,4.7-9.72,8.98-13.66,13.66-3.38,2.58-7.85.17-7.31-4.18.31-2.5,5.45-5.84,6.89-8.02Z"/>
  </g>
  <g>
    <path d="M55.66,51.13c4.44-.53,8.23-4.6,8.98-8.91.22-1.27.03-2.61.69-3.69,1.37-2.24,4.5-2.36,6.01-.21,1.33,1.9.31,6.2-.45,8.3-2.43,6.65-8.67,11.25-15.73,11.78H12.38c1.17,1.77,5.19,4.35,5.53,6.36.58,3.41-2.88,5.7-5.7,3.68-3.2-3.89-8.39-7.5-11.39-11.39-1.06-1.37-1.05-3.06-.08-4.47,3.85-3.17,7.45-8.35,11.3-11.31,2.77-2.13,6.35-.1,5.91,3.38-.25,2.03-4.41,4.73-5.57,6.49h43.28Z"/>
    <path d="M59.63,22.45H16.35c-2.71,0-6.45,3.13-7.75,5.41-1.41,2.48-.99,3.8-1.49,6.28-.45,2.26-3.47,3.36-5.42,2.12-2.36-1.5-1.75-5.02-1.18-7.37,1.84-7.59,8.56-13.13,16.33-13.7h42.78c-1.17-1.77-5.19-4.35-5.53-6.36-.58-3.4,2.87-5.73,5.7-3.68,3.2,3.89,8.39,7.5,11.39,11.39,1.19,1.55,1.01,3.25-.17,4.73-3.02,3.8-7.86,7.26-11.05,11.05-2.73,2.08-6.35.14-5.91-3.38.25-2.03,4.41-4.73,5.57-6.49Z"/>
  </g>
</svg>