<?xml version="1.0" encoding="utf-8"?>
<!-- Generator: Adobe Illustrator 28.0.0, SVG Export Plug-In . SVG Version: 6.00 Build 0)  -->
<svg version="1.1" id="Layer_1" xmlns="http://www.w3.org/2000/svg" xmlns:xlink="http://www.w3.org/1999/xlink" x="0px" y="0px"
	 viewBox="0 0 500 500" style="enable-background:new 0 0 500 500;" xml:space="preserve">
<style type="text/css">
	.st0{fill:#FFFFFF;}
</style>
<g>
	<path class="st0" d="M451.43,189.68v-32.61c0-52.39-42.64-95.03-95.03-95.03h-9.31c-2.01,0-4.08,0.08-6.53,0.25
		c-0.52,0.03-1.05,0.08-1.6,0.11c-2.4,0.19-4.41,0.44-6.36,0.74l-0.25,0.03l-0.05,0.03c-1.76,0.28-3.69,0.63-5.92,1.13
		c-0.5,0.11-0.99,0.22-1.52,0.36c-2.31,0.55-4.21,1.05-6.06,1.65l-0.33,0.08l-0.03,0.03c-1.74,0.55-3.53,1.16-5.54,1.96
		c-0.47,0.19-0.96,0.36-1.4,0.55c-2.12,0.85-3.99,1.68-5.67,2.48l-0.22,0.11c-1.68,0.83-3.33,1.71-5.23,2.78
		c-0.44,0.25-0.85,0.5-1.27,0.72c-1.93,1.13-3.58,2.18-5.12,3.2l-0.28,0.19l-0.14,0.11c-1.52,1.05-3,2.15-4.66,3.41
		c-0.36,0.3-0.74,0.55-1.1,0.85c-3.19,2.53-6.25,5.34-9.09,8.29c-0.33,0.33-0.63,0.66-0.96,0.99c-2.78,2.97-5.43,6.17-7.82,9.5
		c-0.25,0.39-0.52,0.74-0.77,1.1c-1.49,2.15-2.92,4.38-4.24,6.67H239.1c-1.35-2.29-2.75-4.52-4.24-6.67
		c-0.28-0.36-0.5-0.72-0.77-1.07c-2.4-3.36-5.04-6.56-7.85-9.53c-0.33-0.33-0.63-0.66-0.96-0.99c-2.84-2.95-5.89-5.76-9.09-8.29
		c-0.36-0.3-0.69-0.55-1.07-0.85c-1.68-1.32-3.22-2.42-4.68-3.44l-0.14-0.08l-0.25-0.19c-1.54-1.02-3.22-2.07-5.12-3.2
		c-0.44-0.22-0.85-0.47-1.27-0.72c-1.96-1.07-3.64-1.98-5.29-2.81l-0.08-0.03c-1.79-0.85-3.66-1.68-5.76-2.54
		c-0.47-0.19-0.94-0.36-1.43-0.55c-2.01-0.8-3.77-1.41-5.51-1.96l-0.06-0.03l-0.33-0.11c-1.82-0.58-3.75-1.07-6.03-1.62
		c-0.5-0.14-1.02-0.25-1.52-0.36c-2.29-0.5-4.21-0.85-6.09-1.16h-0.06c-2.07-0.33-4.08-0.58-6.47-0.77
		c-0.52-0.03-1.07-0.08-1.6-0.11c-2.42-0.17-4.52-0.25-6.5-0.25h-9.31c-52.42,0-95.05,42.64-95.05,95.03v32.61
		C38.44,214.14,31,241.82,31,270.13c0,88.72,72.14,160.83,160.8,160.83h120.4c88.66,0,160.8-72.11,160.8-160.83
		C473,241.82,465.56,214.14,451.43,189.68z M178.09,194.3c0,8.59-2.97,16.33-7.71,21.84v0.03c-4.38,5.1-10.25,8.24-16.77,8.24h-4.02
		c-3.22,0-6.31-0.77-9.14-2.2s-5.37-3.5-7.57-6.03v-0.03c-4.74-5.51-7.71-13.25-7.71-21.84v-31.98c0-16.61,10.96-30.13,24.43-30.13
		h4.02c13.52,0,24.49,13.52,24.49,30.13V194.3z M322.42,253.52c-7.52,18.81-35.78,32.42-70.43,32.42s-62.88-13.61-70.4-32.42
		c-0.36-0.88-0.55-1.82-0.55-2.67c0-3.91,3.22-7.41,7.46-7.41h3.2c2.89,0,5.48,1.63,6.67,4.24c4.77,10.36,26.14,20.49,53.63,20.49
		c27.52,0,48.92-10.14,53.63-20.49c1.18-2.62,3.83-4.24,6.67-4.24h3.2C320.65,243.44,324.34,248.68,322.42,253.52z M378.85,194.3
		c0,8.59-2.95,16.33-7.68,21.84v0.03c-4.38,5.1-10.27,8.24-16.77,8.24h-4.02c-3.25,0-6.31-0.77-9.14-2.2
		c-2.84-1.43-5.4-3.5-7.6-6.03v-0.03c-4.74-5.51-7.71-13.25-7.71-21.84v-31.98c0-16.61,10.99-30.13,24.46-30.13h4.02
		c13.5,0,24.46,13.52,24.46,30.13V194.3z"/>
</g>
</svg>
