<?xml version="1.0" encoding="UTF-8"?>
<svg id="Layer_1" xmlns="http://www.w3.org/2000/svg" version="1.1" viewBox="0 0 72 72">
  <!-- Generator: Adobe Illustrator 29.6.0, SVG Export Plug-In . SVG Version: 2.1.1 Build 207)  -->
  <g>
    <path d="M-212.29-686.28c19.72-2.34,36.52-20.4,39.83-39.52.98-5.64.13-11.57,3.07-16.39,6.06-9.92,19.98-10.48,26.67-.93,5.89,8.41,1.39,27.51-2.01,36.82-10.77,29.49-38.47,49.92-69.77,52.24l-189.78-.02c5.2,7.86,23.01,19.32,24.52,28.24,2.57,15.13-12.76,25.29-25.29,16.31-14.21-17.25-37.21-33.27-50.53-50.52-4.68-6.06-4.65-13.57-.35-19.85,17.06-14.06,33.05-37.05,50.13-50.17,12.3-9.45,28.15-.43,26.23,15.01-1.12,8.99-19.56,20.98-24.72,28.8h192Z"/>
    <path d="M-194.7-813.53h-192c-12.04,0-28.63,13.88-34.37,24.01-6.24,11.01-4.4,16.84-6.59,27.84-1.99,10.03-15.39,14.91-24.04,9.4-10.46-6.66-7.74-22.28-5.23-32.68,8.14-33.69,37.98-58.24,72.45-60.79l189.78.02c-5.2-7.86-23.01-19.32-24.52-28.24-2.57-15.09,12.75-25.4,25.29-16.31,14.21,17.25,37.21,33.27,50.53,50.52,5.29,6.86,4.47,14.4-.76,20.99-13.4,16.88-34.88,32.21-49.02,49.04-12.12,9.24-28.17.61-26.23-15.01,1.12-8.99,19.56-20.98,24.72-28.8Z"/>
  </g>
  <g>
    <path d="M-75.52,148.34c5.49-.65,10.18-5.68,11.1-11.01.27-1.57.04-3.22.86-4.57,1.69-2.77,5.57-2.92,7.43-.26,1.64,2.34.39,7.66-.56,10.26-3,8.22-10.72,13.91-19.44,14.56h-52.88c1.45,2.18,6.41,5.38,6.83,7.86.72,4.22-3.55,7.05-7.05,4.54-3.96-4.81-10.37-9.27-14.08-14.08-1.3-1.69-1.29-3.78-.1-5.53,4.75-3.92,9.21-10.32,13.97-13.98,3.43-2.63,7.84-.12,7.31,4.18-.31,2.5-5.45,5.84-6.89,8.02h53.5Z"/>
    <path d="M-70.62,112.88h-53.5c-3.35,0-7.98,3.87-9.58,6.69-1.74,3.07-1.23,4.69-1.84,7.76-.56,2.79-4.29,4.15-6.7,2.62-2.92-1.85-2.16-6.21-1.46-9.11,2.27-9.39,10.58-16.23,20.19-16.94h52.88c-1.45-2.18-6.41-5.38-6.83-7.86-.72-4.21,3.55-7.08,7.05-4.54,3.96,4.81,10.37,9.27,14.08,14.08,1.47,1.91,1.25,4.01-.21,5.85-3.73,4.7-9.72,8.98-13.66,13.66-3.38,2.58-7.85.17-7.31-4.18.31-2.5,5.45-5.84,6.89-8.02Z"/>
  </g>
  <g>
    <path d="M67.07,51.37c.11,2.85-.08,5.34-1.24,7.96-2.04,4.6-6.47,7.76-11.46,8.37-13.02-.16-26.42.63-39.42.13C6.95,67.51,1.22,63.15,0,55.02V17.04C1.14,8.89,6.92,4.44,14.96,4.13c9.85-.38,19.94.3,29.81,0,7.4-.2,13.72,4.9,14.95,12.21,3.5,2.03,6.18,5.43,7.04,9.43.37,1.71.3,3.35.32,5.09.63.49,1.38.74,2.01,1.23,1.43,1.12,2.62,3.08,2.78,4.91.19,2.18.17,6.11,0,8.3-.21,2.66-2.27,5.27-4.79,6.08ZM54.68,14.71c-1.31-3.35-4.43-5.68-8.01-6.11H13.28c-5.06.46-9.08,4.85-8.95,9.96,2.49-2.31,5.66-3.69,9.07-3.96,13.23.34,26.69-.45,39.9,0,.46.02.91.19,1.38.13ZM62.73,30.45v-2.58c0-4.59-5.38-9.18-9.91-8.96H14c-5.01.22-9.34,4.12-9.67,9.19-.55,8.48.43,17.55,0,26.09.32,4.92,4.31,8.84,9.19,9.19h40.03c4.19.03,9.19-4.65,9.19-8.84v-2.58c-5.34.09-10.03.47-13.76-3.96-4.7-5.58-2.31-14.27,4.44-16.83.64-.24,2.25-.72,2.89-.72h6.43ZM52.68,36.74c-3.58,3.67-1.35,10.28,3.74,10.77,2.07.2,6.33.19,8.42,0,1.41-.13,2.56-1.32,2.7-2.71.17-1.67.19-5.68,0-7.33-.12-1.09-1.04-2.18-2.07-2.5-1.34-.42-6.7-.32-8.33-.2s-3.31.78-4.47,1.96Z"/>
    <path d="M15,27.36c3.49-.42,7.67.22,11.23,0,2.74.4,2.7,4,.02,4.4l-11.62-.02c-2.62-.74-2.49-4.04.37-4.38Z"/>
  </g>
</svg>